<svg width="33" height="32" viewBox="0 0 33 32" fill="none" xmlns="http://www.w3.org/2000/svg">
<path d="M7.16699 13.3337C7.16699 15.8091 8.15032 18.1831 9.90066 19.9334C11.651 21.6837 14.025 22.6671 16.5003 22.6671M16.5003 22.6671C18.9757 22.6671 21.3497 21.6837 23.1 19.9334C24.8503 18.1831 25.8337 15.8091 25.8337 13.3337M16.5003 22.6671V28.0004M11.167 28.0004H21.8337M12.5001 7.04804C12.5001 5.98717 12.9216 4.96976 13.6717 4.21961C14.4219 3.46947 15.4393 3.04804 16.5001 3.04804C17.561 3.04804 18.5784 3.46947 19.3286 4.21961C20.0787 4.96976 20.5001 5.98717 20.5001 7.04804V13.7147C20.5001 14.7756 20.0787 15.793 19.3286 16.5431C18.5784 17.2933 17.561 17.7147 16.5001 17.7147C15.4393 17.7147 14.4219 17.2933 13.6717 16.5431C12.9216 15.793 12.5001 14.7756 12.5001 13.7147V7.04804Z" stroke="#15B1FF" stroke-width="2" stroke-linecap="round" stroke-linejoin="round"/>
</svg>
