<svg width="16" height="16" viewBox="0 0 16 16" fill="none" xmlns="http://www.w3.org/2000/svg">
<path d="M0.364912 0.364912C0.851445 -0.121617 1.64031 -0.121637 2.12686 0.364912L8 6.23806L13.8731 0.364912C14.3597 -0.121633 15.1485 -0.121642 15.6351 0.364912C16.1216 0.851446 16.1216 1.64029 15.6351 2.12684L9.76194 7.99999L15.6351 13.8731C16.1216 14.3597 16.1216 15.1485 15.6351 15.6351C15.1485 16.1217 14.3597 16.1216 13.8731 15.6351L8 9.76192L2.12686 15.6351C1.64031 16.1216 0.851449 16.1216 0.364916 15.6351C-0.121642 15.1485 -0.121634 14.3597 0.364916 13.8731L6.23806 7.99999L0.364916 2.12684C-0.12163 1.6403 -0.121646 0.851475 0.364912 0.364912Z" fill="#6C7F89"/>
</svg>
