<svg width="33" height="32" viewBox="0 0 33 32" fill="none" xmlns="http://www.w3.org/2000/svg">
<g clip-path="url(#clip0_495_16349)">
<path d="M8.50033 13.3333V13.3467M13.8337 13.3333V13.3467M19.167 13.3333V13.3467M24.5003 13.3333V13.3467M8.50033 18.6667V18.68M24.5003 18.6667V18.68M13.8337 18.6667L19.167 18.68M3.16699 10.6667C3.16699 9.95942 3.44794 9.28115 3.94804 8.78105C4.44814 8.28095 5.12641 8 5.83366 8H27.167C27.8742 8 28.5525 8.28095 29.0526 8.78105C29.5527 9.28115 29.8337 9.95942 29.8337 10.6667V21.3333C29.8337 22.0406 29.5527 22.7189 29.0526 23.219C28.5525 23.719 27.8742 24 27.167 24H5.83366C5.12641 24 4.44814 23.719 3.94804 23.219C3.44794 22.7189 3.16699 22.0406 3.16699 21.3333V10.6667Z" stroke="white" stroke-width="2" stroke-linecap="round" stroke-linejoin="round"/>
</g>
<defs>
<clipPath id="clip0_495_16349">
<rect x="0.5" width="32" height="32" rx="16" fill="white"/>
</clipPath>
</defs>
</svg>
