<svg width="33" height="32" viewBox="0 0 33 32" fill="none" xmlns="http://www.w3.org/2000/svg">
<path d="M4.5 16C4.5 19.1826 5.76428 22.2348 8.01472 24.4853C10.2652 26.7357 13.3174 28 16.5 28C19.6826 28 22.7348 26.7357 24.9853 24.4853C27.2357 22.2348 28.5 19.1826 28.5 16C28.5 12.8174 27.2357 9.76516 24.9853 7.51472C22.7348 5.26428 19.6826 4 16.5 4M23.1667 16C23.1667 14.6815 22.7757 13.3925 22.0431 12.2962C21.3106 11.1999 20.2694 10.3454 19.0512 9.84081C17.8331 9.33622 16.4926 9.2042 15.1994 9.46143C13.9062 9.71867 12.7183 10.3536 11.786 11.286C10.8536 12.2183 10.2187 13.4062 9.96143 14.6994C9.7042 15.9926 9.83622 17.3331 10.3408 18.5512C10.8454 19.7694 11.6999 20.8106 12.7962 21.5431C13.8925 22.2757 15.1815 22.6667 16.5 22.6667" stroke="#EEF0F2" stroke-width="2.5" stroke-linecap="round" stroke-linejoin="round"/>
</svg>
